<svg width="24" height="24" viewBox="0 0 24 24" fill="none" xmlns="http://www.w3.org/2000/svg">
<path d="M15.492 3.507C15.0823 3.54465 14.7014 3.73403 14.4241 4.03799C14.1467 4.34195 13.993 4.73855 13.993 5.15V10C13.993 10.1989 13.914 10.3897 13.7733 10.5303C13.6327 10.671 13.4419 10.75 13.243 10.75C11.8 10.75 10.786 11.338 10.036 12.238C9.26398 13.166 8.76098 14.444 8.44598 15.795C8.13298 17.138 8.01898 18.491 7.98498 19.517C7.97362 19.8445 7.96962 20.1723 7.97298 20.5H14.993V19.75C14.993 19.1534 14.7561 18.5813 14.3343 18.1594C13.9126 17.7374 13.3405 17.5003 12.744 17.5H11.494C11.2951 17.5 11.1043 17.421 10.9636 17.2803C10.823 17.1397 10.744 16.9489 10.744 16.75C10.744 16.5511 10.823 16.3603 10.9636 16.2197C11.1043 16.079 11.2951 16 11.494 16H12.744C13.2363 16.0001 13.7238 16.0972 14.1786 16.2858C14.6334 16.4743 15.0466 16.7505 15.3946 17.0988C15.7427 17.447 16.0187 17.8603 16.207 18.3152C16.3953 18.7701 16.4921 19.2577 16.492 19.75V20.5H17.242C17.4409 20.5 17.6317 20.421 17.7723 20.2803C17.913 20.1397 17.992 19.9489 17.992 19.75V9.75C17.992 9.55143 18.0707 9.36097 18.2109 9.22038C18.3512 9.07978 18.5414 9.00053 18.74 9H19.246C19.4687 8.99997 19.6875 8.94041 19.8795 8.82748C20.0715 8.71455 20.2299 8.55236 20.3381 8.35769C20.4464 8.16301 20.5008 7.94294 20.4954 7.72024C20.4901 7.49753 20.4254 7.28029 20.308 7.091L19.688 6.091C19.5759 5.91043 19.4197 5.76139 19.2341 5.65798C19.0484 5.55457 18.8395 5.5002 18.627 5.5H16.241C16.0421 5.5 15.8513 5.42098 15.7106 5.28033C15.57 5.13968 15.491 4.94891 15.491 4.75V3.507H15.492ZM6.47398 20.5C6.47098 20.216 6.47298 19.866 6.48598 19.467C6.52198 18.384 6.64298 16.925 6.98598 15.455C7.32598 13.993 7.90098 12.459 8.88498 11.278C9.75698 10.231 10.94 9.477 12.495 9.293V5.15C12.495 4.31526 12.8263 3.51465 13.4162 2.92403C14.0061 2.3334 14.8062 2.00106 15.641 2C16.387 2 16.991 2.604 16.991 3.35V4H18.627C19.577 4 20.461 4.492 20.962 5.3L21.582 6.3C22.674 8.063 21.498 10.32 19.489 10.49V19.75C19.489 20.3462 19.2523 20.9181 18.831 21.3399C18.4097 21.7618 17.8382 21.9992 17.242 22H5.79498C5.05478 22.0002 4.33064 21.7841 3.71165 21.3783C3.09265 20.9724 2.60579 20.3944 2.31094 19.7155C2.0161 19.0365 1.92613 18.2862 2.0521 17.5568C2.17807 16.8274 2.51449 16.1507 3.01998 15.61L4.15498 14.393C4.69545 13.8134 4.98989 13.0466 4.97627 12.2543C4.96265 11.4619 4.64205 10.7057 4.08198 10.145L2.96898 9.03C2.8365 8.88783 2.76438 8.69978 2.7678 8.50548C2.77123 8.31118 2.84994 8.12579 2.98736 7.98838C3.12477 7.85097 3.31016 7.77225 3.50446 7.76883C3.69876 7.7654 3.8868 7.83752 4.02898 7.97L5.14298 9.084C5.97836 9.9194 6.45673 11.0465 6.47725 12.2278C6.49777 13.409 6.05884 14.5521 5.25298 15.416L4.11698 16.633C3.81205 16.9606 3.60933 17.3701 3.53367 17.8112C3.45802 18.2524 3.51271 18.706 3.69106 19.1165C3.8694 19.527 4.16364 19.8765 4.5377 20.1223C4.91177 20.368 5.34941 20.4993 5.79698 20.5H6.47398Z" fill="black"/>
</svg>
